<svg width="196" height="30" viewBox="0 0 196 30" fill="none" xmlns="http://www.w3.org/2000/svg">
<g clip-path="url(#clip0)">
<path d="M3.27467 29.3476V15.2607L16.0266 29.3476H20.0718L6.35672 14.5955L19.4554 0.665021H15.5643L3.27467 14.0085V0.665021H0.192627V29.3476H3.27467ZM36.4195 29.3476L46.2307 6.52154L55.7593 29.3476H59.0725L46.3976 0.156326H45.8968L33.2219 29.3476H36.4195ZM78.4637 29.3476V0.665021H75.3817V29.3476H78.4637ZM116.655 29.3476V26.5302H100.86L116.848 1.13459L116.655 0.665021H97.0074V3.48241H111.994L96.0057 28.9172L96.1983 29.3476H116.655ZM134.698 29.3476L144.471 6.52154L154.038 29.3476H157.351L144.676 0.156326H144.176L131.501 29.3476H134.698ZM194.888 29.8955L195.273 29.7781V0.665021H192.191V22.0694L174.084 0.117188L173.468 0.273713V29.3476H176.55V7.59111L194.888 29.8955Z" fill="#2C405D"/>
</g>
<defs>
<clipPath id="clip0">
<rect width="195.517" height="30" fill="white"/>
</clipPath>
</defs>
</svg>
