<svg version="1.1" id="kaizan_logo" xmlns="http://www.w3.org/2000/svg"
    xmlns:xlink="http://www.w3.org/1999/xlink" x="0px" y="0px" viewBox="300 300 1400 1400" xml:space="preserve">
    <g>
        <g>
        <path d="M377.29,1476.35v83.05v5.54h-11.07v-5.54v-83.05v-11.07v-83.05v-5.54h11.07v5.54v83.05h0.29l89.69-86.92l1.66-1.66h15.78
l-9.69,9.41l-87.2,84.71l87.2,84.71l9.69,9.41h-15.78l-1.66-1.66l-89.69-86.92H377.29z" />
        <path d="M585.47,1564.93h-12.18l3.6-7.75l77.51-177.17l1.38-3.32h7.2l1.38,3.32l77.51,177.17l3.6,7.75h-12.18l-1.38-3.32
l-72.53-165.54l-72.53,165.54L585.47,1564.93z" />
        <path d="M860.35,1376.69h11.07v5.54v177.17v5.54h-11.07v-5.54v-177.17V1376.69z" />
        <path d="M991.01,1387.76v-11.07h5.54h111.84h5.54h4.71l-5.54,8.58l-111.28,168.59h111.56h5.54v11.07h-5.54h-121.8h-5.54h-4.71
l5.54-8.58l111.28-168.58H996.54H991.01z" />
        <path d="M1222.15,1564.93h-12.18l3.6-7.75l77.51-177.17l1.38-3.32h7.2l1.39,3.32l77.51,177.17l3.6,7.75h-12.18l-1.38-3.32
l-72.53-165.54l-72.53,165.54L1222.15,1564.93z" />
        <path d="M1506.45,1564.93h-11.07v-5.54v-177.17v-5.54h8.3l1.66,2.21l117.1,163.33l0.28-160v-5.54h11.07v5.54l-0.28,177.17v5.54
h-8.3l-1.66-2.21l-117.1-163.33v160V1564.93z" />
        </g>
        <g>
        <g>
            <polygon
            points="1000,1120.58 1002.91,1117.67 665.98,780.74 1000,446.72 1334.02,780.74 997.09,1117.67 1000,1120.58 
1002.91,1117.67 1000,1120.58 1002.91,1123.5 1345.67,780.74 1000,435.07 654.33,780.74 1000,1126.41 1002.91,1123.5" />
            <polygon
            points="1000,1183.59 1002.91,1180.68 665.98,843.75 1000,509.73 1334.02,843.75 997.09,1180.68 1000,1183.59 
1002.91,1180.68 1000,1183.59 1002.91,1186.51 1345.67,843.75 1000,498.08 654.33,843.75 1000,1189.42 1002.91,1186.51" />
            <polygon points="1000,566.92 997.09,564 654.33,906.76 1000,1252.43 1345.67,906.76 1000,561.09 997.09,564 1000,566.92 
997.09,569.83 1334.02,906.76 1000,1240.78 665.98,906.76 1002.91,569.83 1000,566.92 997.09,569.83" />
        </g>
        <g>
            <polygon points="1055.67,758.1 1045.35,758.1 951.46,930.14 961.75,930.14 999.45,860.83 1037.34,929.79 1047.64,929.79 
1004.81,851.2 1010.43,840.44 1059.28,929.79 1069.59,929.79 1015.8,831.22" />
            <polygon points="1023.48,758.1 958.74,877.18 958.76,758.1 949.68,758.1 949.68,893.65 939.52,911.76 939.51,889.69 
939.51,758.1 930.41,758.1 930.41,930.14 940.08,930.14 1033.97,758.1" />
        </g>
        </g>
    </g>
</svg>