<svg class="navbar--logo_svg" fill="none" viewBox="0 0 124 17" width="100%" xmlns="http://www.w3.org/2000/svg"><g clip-path="url(#clip0_25_182)"><path d="M6.42383 1.12305L12.6645 16.6183H16.2426L10.0019 1.12305H6.42383Z" fill="currentColor"></path><path d="M5.17167 8.95312H2.48438V11.4375H0V14.1248H2.48438V16.6092H5.17167V14.1248H7.65605V11.4375H5.17167V8.95312Z" fill="currentColor"></path><path d="M25.4579 7.33456C22.9735 6.72089 22.2213 6.24084 22.2213 5.30548C22.2213 4.43941 23.1467 3.801 24.3394 3.801C26.319 3.801 28.165 5.07783 28.165 5.07783L29.7635 2.62809C28.1848 1.47499 26.2794 0.861314 24.3196 0.871212C21.0385 0.871212 18.8065 2.78646 18.8065 5.65686C18.8065 7.98287 20.3803 9.36858 23.706 10.1901C26.1904 10.8038 26.9376 11.2838 26.9376 12.239C26.9376 13.3129 25.9825 13.9513 24.4087 13.9513C22.0382 13.9513 20.1031 12.1252 20.1031 12.1252L18.2324 14.5205C19.9052 16.0101 22.0629 16.8415 24.3048 16.8712C28.1106 16.8712 30.3673 15.0698 30.3673 12.0163C30.3623 9.5319 28.9469 8.18578 25.4629 7.33456H25.4579Z" fill="currentColor"></path><path d="M40.3543 7.33447C37.8699 6.7208 37.1226 6.24075 37.1226 5.30539C37.1226 4.43933 38.048 3.80091 39.2407 3.80091C41.2253 3.80091 43.0663 5.07774 43.0663 5.07774L44.6648 2.6379C43.0811 1.48479 41.1758 0.866174 39.216 0.871123C35.9398 0.871123 33.7029 2.78637 33.7029 5.65677C33.7029 7.98278 35.2766 9.36849 38.6023 10.19C41.0867 10.8037 41.839 11.2837 41.839 12.2389C41.839 13.3128 40.8838 13.9512 39.31 13.9512C36.9395 13.9512 35.0044 12.1251 35.0044 12.1251L33.1387 14.5204C34.8114 16.0051 36.9642 16.8414 39.2012 16.8711C43.002 16.8711 45.2587 15.0697 45.2587 12.0162C45.2587 9.53181 43.8482 8.18569 40.3592 7.33447H40.3543Z" fill="currentColor"></path><path d="M49.2383 16.6133H59.6509V13.7231H52.5887V10.239H58.5374V7.36864H52.5887V4.01819H59.6509V1.12305H49.2383V16.6183V16.6133Z" fill="currentColor"></path><path d="M92.734 8.59585V8.56121C93.3081 8.23458 93.7832 7.75453 94.1049 7.1755C94.4266 6.59647 94.58 5.9432 94.5553 5.28004C94.5553 2.68184 92.7538 1.13281 89.7251 1.13281H83.2617V16.6132H89.3885C92.9468 16.6132 94.8126 15.074 94.8324 12.1245C94.8225 10.4369 94.1197 9.25406 92.7291 8.59585H92.734ZM86.6023 3.83495H89.1312C90.4971 3.83495 91.2048 4.44862 91.2048 5.63637C91.2048 6.82412 90.4971 7.43779 89.1312 7.43779H86.6023V3.8399V3.83495ZM89.3737 13.9011H86.6023V10.0261H89.3737C90.7198 10.0261 91.4473 10.6893 91.4671 11.9661C91.4869 13.2429 90.705 13.9011 89.3588 13.9011H89.3687H89.3737Z" fill="currentColor"></path><path d="M71.3392 9.84813H71.1808L67.2414 1.11816H64.0098V16.6134H67.0831V7.52212H67.1524L70.1118 14.129H72.4131L75.3775 7.52212H75.4468V16.6134H78.5251V1.12311H75.2885L71.3491 9.85308L71.3392 9.84813Z" fill="currentColor"></path><path d="M119.602 1.11816L116.39 7.04207H116.321L113.109 1.11816H109.551L114.633 10.3925V16.6084H117.984V10.3925L123.066 1.11816H119.602Z" fill="currentColor"></path><path d="M102.533 1.11816H99.1875V16.6134H109.739V13.6291H102.538V1.11816H102.533Z" fill="currentColor"></path></g></svg>