<svg xmlns:xlink="http://www.w3.org/1999/xlink" id="Layer_1" xmlns="http://www.w3.org/2000/svg" viewBox="0 0 616.18 87.01" width="217" height="31">
<path class="st1" d="M122.86 26.75c1.45-1.57 3.14-2.81 5.06-3.71 1.92-.9 3.99-1.35 6.2-1.35 3.47 0 6.39.86 8.74 2.58 2.35 1.72 4.12 3.93 5.31 6.62h5.46c-.7-2.09-1.65-4-2.85-5.73a19.652 19.652 0 0 0-4.29-4.48c-1.66-1.25-3.53-2.22-5.61-2.91-2.08-.7-4.34-1.04-6.75-1.04-2.9 0-5.64.58-8.22 1.75a21.273 21.273 0 0 0-6.72 4.76c-1.9 2-3.41 4.34-4.51 7.02-1.1 2.68-1.66 5.55-1.66 8.62 0 3.07.55 5.95 1.66 8.65 1.1 2.7 2.6 5.05 4.51 7.06 1.9 2 4.14 3.59 6.72 4.75 2.58 1.17 5.31 1.75 8.22 1.75 2.29 0 4.46-.34 6.5-1.01 2.04-.68 3.9-1.63 5.58-2.85 1.68-1.23 3.15-2.72 4.42-4.48 1.27-1.76 2.27-3.72 3.01-5.89h-5.46c-1.31 2.82-3.19 5.06-5.64 6.72-2.45 1.66-5.25 2.48-8.4 2.48-2.21 0-4.27-.45-6.2-1.35-1.92-.9-3.61-2.14-5.06-3.71-1.45-1.57-2.6-3.4-3.43-5.49-.84-2.08-1.26-4.3-1.26-6.62 0-2.33.42-4.54 1.26-6.62.81-2.12 1.96-3.95 3.41-5.52zM183.89 32.85a15.664 15.664 0 0 0-5.03-3.59c-1.94-.88-4.04-1.32-6.29-1.32s-4.33.44-6.25 1.32c-1.93.88-3.6 2.08-5.03 3.59-1.43 1.51-2.56 3.28-3.38 5.31-.82 2.02-1.23 4.18-1.23 6.47s.41 4.43 1.23 6.41c.82 1.98 1.94 3.72 3.38 5.21 1.43 1.49 3.1 2.67 5.03 3.53 1.92.86 4.01 1.29 6.25 1.29 2.25 0 4.35-.43 6.29-1.29 1.94-.86 3.62-2.03 5.03-3.53 1.41-1.49 2.53-3.22 3.34-5.21.82-1.98 1.23-4.12 1.23-6.41s-.41-4.45-1.23-6.47c-.82-2.03-1.93-3.79-3.34-5.31zm-1.48 16.32c-.55 1.43-1.32 2.67-2.3 3.71-.98 1.04-2.12 1.87-3.41 2.48-1.29.61-2.67.92-4.14.92-1.47 0-2.85-.31-4.14-.92a10.87 10.87 0 0 1-3.37-2.48c-.96-1.05-1.72-2.28-2.27-3.71-.55-1.43-.83-2.94-.83-4.54 0-1.64.28-3.18.83-4.63.55-1.45 1.31-2.71 2.27-3.77s2.09-1.91 3.37-2.54c1.29-.63 2.67-.95 4.14-.95 1.47 0 2.86.32 4.14.95 1.29.63 2.42 1.48 3.41 2.54.98 1.06 1.75 2.32 2.3 3.77.55 1.45.83 3 .83 4.63 0 1.59-.27 3.11-.83 4.54zM194.04 14.7h5.21v45.63h-5.21zM206.61 14.7h5.21v45.63h-5.21zM247.86 38.37c-.88-2.21-2.07-4.09-3.56-5.64-1.49-1.55-3.2-2.74-5.12-3.56-1.92-.82-3.91-1.23-5.95-1.23-2.21 0-4.27.44-6.19 1.32-1.92.88-3.6 2.07-5.03 3.56-1.43 1.49-2.57 3.25-3.4 5.27-.84 2.02-1.26 4.18-1.26 6.47 0 2.33.42 4.5 1.26 6.5.84 2 1.98 3.74 3.44 5.21 1.45 1.47 3.16 2.64 5.12 3.5 1.96.86 4.09 1.29 6.38 1.29 3.68 0 6.81-.91 9.38-2.73 2.58-1.82 4.42-4.42 5.52-7.82h-5.52c-.86 1.85-2.08 3.27-3.65 4.29-1.57 1.03-3.49 1.54-5.73 1.54-1.31 0-2.58-.24-3.81-.71s-2.34-1.15-3.34-2.05c-1-.9-1.84-1.99-2.51-3.28-.67-1.29-1.09-2.75-1.26-4.38h26.56c-.01-2.83-.45-5.34-1.33-7.55zm-24.93 2.89c.33-1.35.85-2.56 1.56-3.62.72-1.06 1.53-1.96 2.46-2.7.92-.74 1.92-1.3 3-1.69 1.08-.39 2.18-.58 3.28-.58 1.15 0 2.26.2 3.34.61s2.08.99 2.97 1.75c.9.76 1.69 1.67 2.36 2.73.67 1.06 1.17 2.23 1.5 3.5h-20.47zM260.31 36.23c.96-1.06 2.09-1.91 3.37-2.54 1.29-.63 2.67-.95 4.14-.95 2.09 0 3.91.53 5.46 1.59 1.55 1.06 2.78 2.46 3.68 4.17h5.58c-.53-1.59-1.27-3.03-2.21-4.32-.94-1.29-2.04-2.39-3.31-3.31-1.27-.92-2.68-1.64-4.23-2.15-1.55-.51-3.21-.77-4.97-.77-2.17 0-4.21.44-6.13 1.32-1.92.88-3.6 2.07-5.03 3.56-1.43 1.49-2.57 3.25-3.41 5.27-.84 2.02-1.25 4.18-1.25 6.47s.42 4.44 1.25 6.44c.84 2 1.98 3.75 3.41 5.25a15.94 15.94 0 0 0 5.03 3.53c1.92.86 3.97 1.29 6.13 1.29 3.56 0 6.64-.96 9.23-2.88 2.6-1.92 4.42-4.48 5.49-7.67h-5.58c-.86 1.72-2.08 3.11-3.65 4.18-1.57 1.06-3.4 1.59-5.49 1.59-1.47 0-2.85-.31-4.14-.92-1.29-.61-2.41-1.45-3.37-2.52-.96-1.06-1.71-2.29-2.27-3.71-.55-1.41-.83-2.94-.83-4.57 0-1.64.28-3.17.83-4.6.55-1.44 1.31-2.69 2.27-3.75zM298.09 55.4c-.88-.18-1.65-.53-2.33-1.04-.67-.51-1.21-1.22-1.59-2.12-.39-.9-.58-2.05-.58-3.44V33.71h7.18v-4.97h-7.18V22h-5.15v6.75h-4.29v4.97h4.29V48.8c0 2 .3 3.77.92 5.3.61 1.53 1.46 2.8 2.54 3.8s2.39 1.71 3.93 2.12c1.53.41 3.22.51 5.06.31v-4.78c-.99.08-1.92.03-2.8-.15zM305.61 28.74h5.21v31.59h-5.21zM305.61 17.76h5.21v6.2h-5.21zM329.04 53.89l-8.77-25.15h-5.52l11.46 31.59h5.59l11.47-31.59h-5.52zM375.01 38.37c-.88-2.21-2.06-4.09-3.55-5.64-1.49-1.55-3.2-2.74-5.12-3.56-1.92-.82-3.91-1.23-5.95-1.23-2.21 0-4.27.44-6.19 1.32-1.92.88-3.6 2.07-5.03 3.56-1.43 1.49-2.57 3.25-3.4 5.27-.84 2.02-1.26 4.18-1.26 6.47 0 2.33.42 4.5 1.26 6.5.84 2 1.98 3.74 3.43 5.21 1.45 1.47 3.16 2.64 5.12 3.5 1.96.86 4.09 1.29 6.38 1.29 3.68 0 6.81-.91 9.38-2.73 2.58-1.82 4.42-4.42 5.52-7.82h-5.52c-.86 1.85-2.07 3.27-3.65 4.29-1.57 1.03-3.48 1.54-5.73 1.54a10.5 10.5 0 0 1-3.8-.71 10.72 10.72 0 0 1-3.34-2.05c-1-.9-1.84-1.99-2.51-3.28-.68-1.29-1.1-2.75-1.26-4.38h26.56c-.03-2.83-.46-5.34-1.34-7.55zm-24.94 2.89c.33-1.35.85-2.56 1.57-3.62.71-1.06 1.53-1.96 2.45-2.7.93-.74 1.92-1.3 3.01-1.69 1.08-.39 2.18-.58 3.28-.58 1.14 0 2.26.2 3.34.61s2.07.99 2.97 1.75c.9.76 1.68 1.67 2.36 2.73.67 1.06 1.17 2.23 1.5 3.5h-20.48z" fill="#FFFFFF"></path>
<g><path class="st2" d="M389.3 26.75c1.45-1.57 3.14-2.81 5.06-3.71 1.92-.9 3.98-1.35 6.2-1.35 3.48 0 6.38.86 8.74 2.58 2.35 1.72 4.12 3.93 5.31 6.62h5.46c-.7-2.09-1.64-4-2.85-5.73-1.2-1.74-2.63-3.23-4.29-4.48-1.66-1.25-3.53-2.22-5.61-2.91-2.08-.7-4.34-1.04-6.75-1.04-2.91 0-5.64.58-8.22 1.75-2.57 1.17-4.81 2.75-6.71 4.76-1.9 2-3.4 4.34-4.51 7.02-1.1 2.68-1.65 5.55-1.65 8.62 0 3.07.56 5.95 1.65 8.65 1.11 2.7 2.61 5.05 4.51 7.06 1.9 2 4.14 3.59 6.71 4.75 2.58 1.17 5.32 1.75 8.22 1.75 2.29 0 4.46-.34 6.5-1.01 2.04-.68 3.91-1.63 5.58-2.85 1.67-1.23 3.15-2.72 4.42-4.48 1.26-1.76 2.26-3.72 3-5.89h-5.46c-1.31 2.82-3.2 5.06-5.64 6.72-2.45 1.66-5.25 2.48-8.4 2.48-2.21 0-4.27-.45-6.2-1.35-1.92-.9-3.61-2.14-5.06-3.71-1.45-1.57-2.6-3.4-3.44-5.49-.84-2.08-1.26-4.3-1.26-6.62 0-2.33.42-4.54 1.26-6.62.83-2.12 1.98-3.95 3.43-5.52zM450.33 32.85a15.664 15.664 0 0 0-5.03-3.59c-1.94-.88-4.04-1.32-6.29-1.32s-4.33.44-6.25 1.32c-1.92.88-3.6 2.08-5.03 3.59-1.44 1.51-2.56 3.28-3.37 5.31-.82 2.02-1.23 4.18-1.23 6.47s.41 4.43 1.23 6.41a16.46 16.46 0 0 0 3.37 5.21 15.94 15.94 0 0 0 5.03 3.53c1.92.86 4.01 1.29 6.25 1.29 2.25 0 4.35-.43 6.29-1.29 1.94-.86 3.62-2.03 5.03-3.53 1.41-1.49 2.52-3.22 3.34-5.21.82-1.98 1.22-4.12 1.22-6.41s-.41-4.45-1.22-6.47c-.82-2.03-1.93-3.79-3.34-5.31zm-1.47 16.32c-.55 1.43-1.32 2.67-2.3 3.71-.98 1.04-2.12 1.87-3.41 2.48-1.28.61-2.67.92-4.14.92-1.47 0-2.85-.31-4.14-.92a10.87 10.87 0 0 1-3.37-2.48c-.96-1.05-1.72-2.28-2.27-3.71-.55-1.43-.83-2.94-.83-4.54 0-1.64.28-3.18.83-4.63.55-1.45 1.31-2.71 2.27-3.77s2.09-1.91 3.37-2.54c1.29-.63 2.67-.95 4.14-.95 1.47 0 2.86.32 4.14.95 1.29.63 2.43 1.48 3.41 2.54s1.75 2.32 2.3 3.77c.55 1.45.83 3 .83 4.63 0 1.59-.28 3.11-.83 4.54zM483.57 31.69c-1.04-1.18-2.32-2.1-3.83-2.76-1.52-.65-3.23-.98-5.16-.98-1.92 0-3.67.38-5.24 1.14-1.58.76-2.89 1.79-3.96 3.1v-3.44h-5.03v31.59h5.21V41.01c0-1.19.2-2.28.62-3.28.4-1 .98-1.87 1.71-2.61a8.17 8.17 0 0 1 2.64-1.75c1.02-.43 2.13-.64 3.31-.64 2.53 0 4.45.79 5.77 2.36 1.31 1.58 1.96 3.59 1.96 6.04v19.2h5.15V41.32c0-1.96-.27-3.76-.8-5.4-.52-1.64-1.3-3.05-2.35-4.23zM504.25 55.4a5.68 5.68 0 0 1-2.33-1.04c-.67-.51-1.21-1.22-1.6-2.12-.38-.9-.58-2.05-.58-3.44V33.71h7.18v-4.97h-7.18V22h-5.16v6.75h-4.29v4.97h4.29V48.8c0 2 .31 3.77.92 5.3.62 1.53 1.46 2.8 2.54 3.8 1.09 1 2.39 1.71 3.93 2.12 1.53.41 3.22.51 5.06.31v-4.78c-.98.08-1.91.03-2.78-.15zM539.88 38.37c-.88-2.21-2.07-4.09-3.56-5.64-1.49-1.55-3.2-2.74-5.12-3.56-1.92-.82-3.91-1.23-5.95-1.23-2.21 0-4.27.44-6.2 1.32-1.92.88-3.6 2.07-5.03 3.56-1.44 1.49-2.57 3.25-3.41 5.27-.84 2.02-1.26 4.18-1.26 6.47 0 2.33.42 4.5 1.26 6.5.84 2 1.98 3.74 3.44 5.21 1.45 1.47 3.16 2.64 5.12 3.5 1.96.86 4.09 1.29 6.38 1.29 3.68 0 6.81-.91 9.38-2.73 2.58-1.82 4.42-4.42 5.53-7.82h-5.53c-.86 1.85-2.07 3.27-3.65 4.29-1.57 1.03-3.49 1.54-5.73 1.54a10.5 10.5 0 0 1-3.8-.71c-1.23-.47-2.34-1.15-3.35-2.05-1-.9-1.84-1.99-2.51-3.28-.68-1.29-1.09-2.75-1.26-4.38h26.56c.01-2.83-.43-5.34-1.31-7.55zm-24.93 2.89c.32-1.35.85-2.56 1.56-3.62a12.06 12.06 0 0 1 2.46-2.7c.92-.74 1.92-1.3 3-1.69 1.08-.39 2.18-.58 3.28-.58 1.15 0 2.26.2 3.34.61 1.09.41 2.08.99 2.97 1.75.9.76 1.69 1.67 2.36 2.73.67 1.06 1.18 2.23 1.5 3.5h-20.47zM569.57 31.69c-1.04-1.18-2.32-2.1-3.84-2.76-1.51-.65-3.23-.98-5.15-.98-1.92 0-3.67.38-5.24 1.14-1.58.76-2.89 1.79-3.96 3.1v-3.44h-5.03v31.59h5.21V41.01c0-1.19.2-2.28.61-3.28s.98-1.87 1.72-2.61a8.17 8.17 0 0 1 2.64-1.75c1.02-.43 2.13-.64 3.31-.64 2.53 0 4.46.79 5.77 2.36 1.31 1.58 1.96 3.59 1.96 6.04v19.2h5.15V41.32c0-1.96-.27-3.76-.8-5.4-.52-1.64-1.31-3.05-2.35-4.23zM590.24 55.4a5.68 5.68 0 0 1-2.33-1.04c-.67-.51-1.21-1.22-1.6-2.12-.39-.9-.58-2.05-.58-3.44V33.71h7.18v-4.97h-7.18V22h-5.16v6.75h-4.29v4.97h4.29V48.8c0 2 .31 3.77.93 5.3.61 1.53 1.46 2.8 2.54 3.8s2.39 1.71 3.93 2.12c1.53.41 3.22.51 5.06.31v-4.78c-.98.08-1.91.03-2.79-.15z" fill="#FFFFFF"></path></g>
<g>
<path class="st2" d="M30.69 76.63l-9.16-60.02-10.56 2.53 17.05 60.55 24.57-5.89z M34.47 9.54l-9.31 1.2 9.31 61.23z" fill="#FFFFFF"></path>
<path class="st1" d="M38.79 7.81v62.52h59.17V7.81H38.79zm8.19 36.01c.36.99.85 1.86 1.47 2.61a6.94 6.94 0 0 0 2.18 1.76c.84.43 1.74.64 2.71.64 1.35 0 2.54-.36 3.56-1.08a6.901 6.901 0 0 0 2.3-2.71h4.81c-.38 1.2-.91 2.28-1.57 3.25-.67.97-1.46 1.8-2.37 2.47-.92.68-1.94 1.2-3.07 1.58-1.13.37-2.35.56-3.66.56-1.6 0-3.1-.32-4.49-.95-1.39-.63-2.59-1.51-3.61-2.62s-1.82-2.41-2.41-3.91c-.59-1.5-.88-3.1-.88-4.83 0-1.72.29-3.33.88-4.82.59-1.5 1.39-2.8 2.41-3.91 1.02-1.11 2.22-1.98 3.61-2.62 1.39-.63 2.89-.95 4.49-.95 1.33 0 2.57.18 3.71.55a10.344 10.344 0 0 1 5.45 4.09c.66.98 1.18 2.06 1.54 3.26h-4.85a6.76 6.76 0 0 0-2.3-2.68c-1.02-.7-2.2-1.05-3.56-1.05-.97 0-1.88.22-2.71.64-.84.43-1.56 1.02-2.18 1.76-.62.75-1.11 1.62-1.47 2.61-.36.99-.54 2.04-.54 3.15 0 1.14.18 2.2.55 3.2zm23.31 0c.36.99.85 1.86 1.47 2.61.62.75 1.35 1.33 2.19 1.76.84.43 1.74.64 2.71.64 1.35 0 2.54-.36 3.56-1.08a6.901 6.901 0 0 0 2.3-2.71h4.81c-.38 1.2-.91 2.28-1.58 3.25-.67.97-1.46 1.8-2.37 2.47-.92.68-1.94 1.2-3.07 1.58-1.13.37-2.35.56-3.66.56-1.6 0-3.1-.32-4.49-.95-1.39-.63-2.59-1.51-3.61-2.62s-1.82-2.41-2.41-3.91c-.59-1.5-.88-3.1-.88-4.83 0-1.72.29-3.33.88-4.82.59-1.5 1.39-2.8 2.41-3.91 1.02-1.11 2.22-1.98 3.61-2.62 1.39-.63 2.89-.95 4.49-.95 1.33 0 2.57.18 3.71.55 1.14.37 2.17.9 3.08 1.59.91.69 1.7 1.52 2.37 2.5.67.98 1.18 2.06 1.54 3.26H82.5a6.76 6.76 0 0 0-2.3-2.68c-1.02-.7-2.2-1.05-3.56-1.05-.97 0-1.88.22-2.71.64a7.12 7.12 0 0 0-2.19 1.76c-.62.75-1.11 1.62-1.47 2.61-.36.99-.54 2.04-.54 3.15.02 1.14.2 2.2.56 3.2zm21.81 5.51c-1.49 0-2.7-1.21-2.7-2.7 0-1.49 1.21-2.7 2.7-2.7 1.49 0 2.7 1.21 2.7 2.7 0 1.49-1.21 2.7-2.7 2.7zm0-12.06c-1.49 0-2.7-1.21-2.7-2.7 0-1.49 1.21-2.7 2.7-2.7 1.49 0 2.7 1.21 2.7 2.7 0 1.49-1.21 2.7-2.7 2.7z" fill="#FFFFFF"></path>
</g>
</svg>