<svg class="logo-white img-svg logo-no-full replaced-svg" fill="none" height="50" viewBox="0 0 196 50" width="196" xmlns="http://www.w3.org/2000/svg">
<path d="M21.4275 10.6867C19.6694 7.93907 16.5814 6.47875 13.2882 6.47875C5.33319 6.47875 0 13.3774 0 21.7609C0 29.8698 5.04018 36.3228 13.0118 36.3228C16.2701 36.3228 19.4276 35.2064 21.372 32.6129V33.9422C21.372 38.8507 18.5843 41.3065 13.0118 41.3065C10.4361 41.3065 7.00052 40.5295 4.52823 39.1886L3.21122 47.729C5.96327 49.1909 11.081 49.9994 14.3952 49.9994C25.2574 49.9994 30.8961 44.3908 30.8961 33.6095V7.36419H21.5387L21.4275 10.6867ZM15.7245 27.4641C12.3141 27.4641 9.91023 25.0629 9.91023 21.6497C9.91023 18.0411 12.2295 15.3376 15.7245 15.3376C19.2346 15.3376 21.4831 18.0571 21.4831 21.6497C21.4831 25.0358 19.1581 27.4641 15.7245 27.4641ZM45.8457 11.6287L45.7345 7.36441H36.0454V35.9353H46.0118V23.699C46.0118 19.3782 47.4831 16.1137 51.8252 16.1137C52.8814 16.1137 53.8762 16.316 54.8344 16.6364L56.2555 7.42094C55.3317 7.01465 54.2435 6.81151 52.9876 6.81151C49.6308 6.81151 47.2014 8.63064 45.8457 11.6287ZM152.417 23.3103V15.393H159.262L160.5 7.36441H152.417V0H142.505V7.36441H138.871L137.633 15.393H142.505V25.582C142.505 32.8579 145.764 36.8221 153.302 36.8221C155.136 36.8221 157.384 36.6132 159.364 36.0744L160.778 26.9104C159.485 27.6117 157.935 27.9614 156.127 27.9614C153.652 27.9614 152.417 26.996 152.417 23.3103ZM78.114 10.6871C76.3574 7.94094 73.2689 6.47941 69.9741 6.47941C62.0603 6.47941 56.6867 13.3573 56.6867 21.7611C56.6867 30.1234 61.6579 36.8221 69.6985 36.8221C73.0981 36.8221 76.282 35.5332 78.114 32.6691L78.2252 35.9353H87.5822V7.36441H78.2252L78.114 10.6871ZM72.4118 27.9614C68.9199 27.9614 66.5966 25.2653 66.5966 21.6499C66.5966 17.8837 69.0596 15.3383 72.4118 15.3383C75.9632 15.3383 78.1687 18.1092 78.1687 21.6499C78.1687 25.1871 75.9659 27.9614 72.4118 27.9614ZM106.241 24.3698L101.202 7.36441H90.2938L100.87 35.9353H111.334L121.91 7.36441H111.668L106.241 24.3698ZM185.084 7.36441L179.826 24.1423L173.956 7.36441H162.936L174.51 34.2183C172.908 37.5578 172.372 40.9733 168.197 40.9733C166.683 40.9733 165.768 40.9733 165.768 40.9733L164.376 49.9999C164.376 49.9999 167.485 49.9999 169.416 49.9999C177.477 49.9999 180.382 45.2973 183.701 37.0976L195.66 7.36441H185.084ZM124.623 25.3955C128.213 25.4883 131.11 28.4205 131.11 32.0301C131.11 33.3884 130.852 34.7052 130.376 35.935C132.586 35.9352 134.59 35.9353 134.59 35.9353V7.36441H124.623V25.3955Z" fill="#121212"></path>
<path d="M21.4275 10.6867C19.6694 7.93907 16.5814 6.47875 13.2882 6.47875C5.33319 6.47875 0 13.3774 0 21.7609C0 29.8698 5.04018 36.3228 13.0118 36.3228C16.2701 36.3228 19.4276 35.2064 21.372 32.6129V33.9422C21.372 38.8507 18.5843 41.3065 13.0118 41.3065C10.4361 41.3065 7.00052 40.5295 4.52823 39.1886L3.21122 47.729C5.96327 49.1909 11.081 49.9994 14.3952 49.9994C25.2574 49.9994 30.8961 44.3908 30.8961 33.6095V7.36419H21.5387L21.4275 10.6867ZM15.7245 27.4641C12.3141 27.4641 9.91023 25.0629 9.91023 21.6497C9.91023 18.0411 12.2295 15.3376 15.7245 15.3376C19.2346 15.3376 21.4831 18.0571 21.4831 21.6497C21.4831 25.0358 19.1581 27.4641 15.7245 27.4641ZM45.8457 11.6287L45.7345 7.36441H36.0454V35.9353H46.0118V23.699C46.0118 19.3782 47.4831 16.1137 51.8252 16.1137C52.8814 16.1137 53.8762 16.316 54.8344 16.6364L56.2555 7.42094C55.3317 7.01465 54.2435 6.81151 52.9876 6.81151C49.6308 6.81151 47.2014 8.63064 45.8457 11.6287ZM152.417 23.3103V15.393H159.262L160.5 7.36441H152.417V0H142.505V7.36441H138.871L137.633 15.393H142.505V25.582C142.505 32.8579 145.764 36.8221 153.302 36.8221C155.136 36.8221 157.384 36.6132 159.364 36.0744L160.778 26.9104C159.485 27.6117 157.935 27.9614 156.127 27.9614C153.652 27.9614 152.417 26.996 152.417 23.3103ZM78.114 10.6871C76.3574 7.94094 73.2689 6.47941 69.9741 6.47941C62.0603 6.47941 56.6867 13.3573 56.6867 21.7611C56.6867 30.1234 61.6579 36.8221 69.6985 36.8221C73.0981 36.8221 76.282 35.5332 78.114 32.6691L78.2252 35.9353H87.5822V7.36441H78.2252L78.114 10.6871ZM72.4118 27.9614C68.9199 27.9614 66.5966 25.2653 66.5966 21.6499C66.5966 17.8837 69.0596 15.3383 72.4118 15.3383C75.9632 15.3383 78.1687 18.1092 78.1687 21.6499C78.1687 25.1871 75.9659 27.9614 72.4118 27.9614ZM106.241 24.3698L101.202 7.36441H90.2938L100.87 35.9353H111.334L121.91 7.36441H111.668L106.241 24.3698ZM185.084 7.36441L179.826 24.1423L173.956 7.36441H162.936L174.51 34.2183C172.908 37.5578 172.372 40.9733 168.197 40.9733C166.683 40.9733 165.768 40.9733 165.768 40.9733L164.376 49.9999C164.376 49.9999 167.485 49.9999 169.416 49.9999C177.477 49.9999 180.382 45.2973 183.701 37.0976L195.66 7.36441H185.084ZM124.623 25.3955C128.213 25.4883 131.11 28.4205 131.11 32.0301C131.11 33.3884 130.852 34.7052 130.376 35.935C132.586 35.9352 134.59 35.9353 134.59 35.9353V7.36441H124.623V25.3955Z" fill="black" fill-opacity="0.2"></path>
<path d="M122.125 39.7546C122.617 39.7546 122.725 39.8147 123.217 39.8147C124.569 39.8147 125.779 39.2804 126.665 38.3947C128.293 36.7659 129.301 34.5157 129.301 32.0303C129.301 29.3556 127.128 27.1874 124.453 27.1874C123.525 27.1874 123.211 27.3974 122.431 27.4485C122.152 26.4067 121.661 25.4479 120.945 24.6816C120.93 24.6814 120.917 24.6772 120.903 24.6772C120.547 24.6772 120.205 24.7254 119.866 24.7818C120.81 25.4556 121.557 26.3832 122.018 27.4619C121.063 27.4409 120.816 27.1874 119.797 27.1874C117.122 27.1874 114.949 29.3556 114.949 32.0303C114.949 34.5157 115.956 36.7659 117.585 38.3947C118.471 39.2804 119.681 39.8147 121.033 39.8147C121.525 39.8147 121.633 39.7546 122.125 39.7546Z" fill="#121212"></path>
<path d="M122.125 39.7546C122.617 39.7546 122.725 39.8147 123.217 39.8147C124.569 39.8147 125.779 39.2804 126.665 38.3947C128.293 36.7659 129.301 34.5157 129.301 32.0303C129.301 29.3556 127.128 27.1874 124.453 27.1874C123.525 27.1874 123.211 27.3974 122.431 27.4485C122.152 26.4067 121.661 25.4479 120.945 24.6816C120.93 24.6814 120.917 24.6772 120.903 24.6772C120.547 24.6772 120.205 24.7254 119.866 24.7818C120.81 25.4556 121.557 26.3832 122.018 27.4619C121.063 27.4409 120.816 27.1874 119.797 27.1874C117.122 27.1874 114.949 29.3556 114.949 32.0303C114.949 34.5157 115.956 36.7659 117.585 38.3947C118.471 39.2804 119.681 39.8147 121.033 39.8147C121.525 39.8147 121.633 39.7546 122.125 39.7546Z" fill="black" fill-opacity="0.2"></path>
</svg>