<svg enable-background="new 0 0 314 67" version="1.1" viewBox="0 0 314 67" xml:space="preserve" xmlns="http://www.w3.org/2000/svg">
<!--P-->
<path class="blue p" d="m16.6 6.9h-10.9l-2.5-3.2-3.2 3.2v59.3h11.1l3.3-3.3-3.2-1.6v-13h6c15.4 0 24.4-9.1 24.4-21.2-0.1-12.4-9.4-20.2-25-20.2zm1.1 31.4h-6.5v-21.2h6.4c7.6 0 12.7 3.7 12.7 10.5s-5.1 10.7-12.6 10.7z"></path>
<path class="pink p" d="m19.3 4.1h-10.9l-2.4-3.2-3.3 3.2v59.3h11.1l3.2-3.2-3.2-1.6v-13h6c15.4 0 24.3-9.1 24.3-21.2 0.1-12.6-9.2-20.3-24.8-20.3zm1.1 31.3h-6.5v-21.1h6.4c7.6 0 12.7 3.7 12.7 10.5s-5.1 10.6-12.6 10.6z"></path>
<path class="red p" d="m6 0.9h16.5c15.6 0 24.9 7.7 24.9 20.3 0 12-8.9 21.2-24.4 21.2h-6v17.8h-11v-59.3zm30.2 20.7c0-6.8-5.1-10.5-12.7-10.5h-6.4v21.2h6.5c7.5-0.1 12.6-4 12.6-10.7z"></path>
<!--A-->
<polygon class="blue a" points="83.5 11.1 52.5 66.1 115.8 66.1 121.6 55.8 70.1 55.8 89.6 21.3"></polygon>
<polygon class="red a" points="77.4 0.9 46.3 56 52.5 66.1 77.8 21.3 98.5 55.8 110.1 55.8"></polygon>
<polygon class="pink a" points="70.1 55.8 121.6 55.8 89.3 0.9 77.4 0.9 103.9 45.5 75.9 45.5"></polygon>
<!--S-->
<path class="blue s" d="m168 10c-4.5-2.6-9.6-4-14.8-3.9-11.8 0-19.9 6.7-19.9 16.9 0 10 8.1 13.8 15.8 17 6.9 3 11.1 5.1 11.1 9.5 0 4.8-4.5 7.7-10.4 7.7-4-0.1-8-1.1-11.5-3.1l-2.2-6.4-2.7 2.9v11.1c3.8 2.8 10.2 5.3 17.3 5.3 12.2 0 20.8-7.1 20.8-17.9 0-10.7-8.5-14.4-16.9-17.9-6.7-2.8-10.3-4.7-10.3-8.7 0-4.3 4.2-6.7 9.6-6.7 5.1 0 10 1.6 14.2 4.4l3.2-3.2-3.3-7"></path>
<path class="pink s" d="m170.8 7.1c-4.5-2.6-9.6-4-14.9-3.9-11.8 0-19.9 6.7-19.9 16.9 0 10 8.1 13.8 15.8 17 6.9 3 11.1 5.1 11.1 9.5 0 4.8-4.5 7.7-10.4 7.7-3.7 0-7.4-1-10.7-2.7l-2.5-7.1-3.2 3.2v11.1c3.8 2.8 10.2 5.3 17.3 5.3 12.2 0 20.8-7.1 20.8-17.9 0-10.7-8.5-14.4-16.9-17.9-6.7-2.8-10.3-4.7-10.3-8.7 0-4.3 4.2-6.7 9.6-6.7 5.1 0 10.1 1.6 14.3 4.5l3.2-3.2-3.3-7.1"></path>
<path class="red s" d="m173.9 3.9v10.4c-4.2-2.9-9.2-4.4-14.3-4.5-5.4 0-9.6 2.4-9.6 6.7 0 4 3.5 5.9 10.3 8.7 8.5 3.5 16.9 7.2 16.9 17.9 0 10.8-8.7 17.9-20.8 17.9-7.1 0-13.5-2.5-17.3-5.3v-11c4.5 4.1 10.3 6.5 16.4 6.6 6 0 10.4-2.9 10.4-7.7 0-4.4-4.2-6.5-11.1-9.5-7.7-3.2-15.8-7-15.8-17 0-10.2 8.2-16.9 19.9-16.9 5.4-0.2 10.5 1.1 15 3.7z"></path>
<!--H-->
<polygon class="blue h" points="203.9 63.3 200.9 60.7 201.1 41.6 227.6 41.6 227.6 66.2 238.7 66.2 242 62.9 238.8 61 238.8 7 233.7 7 230.6 4 227.6 6.9 227.6 31.3 201.1 31.3 201.1 7 196.1 7 193 4 190 6.9 190 66.2 201.1 66.2 201.1 66.2"></polygon>
<polyline class="pink h" points="207.1 60.1 203.9 58.2 203.9 38.7 230.4 38.7 230.4 63.3 241.5 63.3 244.8 60.1 241.5 58.2 241.5 4.2 236.6 4.2 233.7 0.9 230.4 4.1 230.4 28.5 203.9 28.5 203.9 4.2 198.9 4.2 196 0.9 192.8 4.1 192.8 63.3 203.9 63.3 207.1 60.1"></polyline>
<polygon class="red h" points="233.7 35.5 207.1 35.5 207.1 60.1 196 60.1 196 0.9 207.1 0.9 207.1 25.2 233.7 25.2 233.7 0.9 244.8 0.9 244.8 60.1 233.7 60.1"></polygon>
<!--N-->
<polygon class="blue n" points="310.9 62.9 307.7 61 307.7 7 303.1 7 300 4 297 6.9 297 47.7 296.9 47.7 268.9 7 264.1 7 261 4 258 6.9 258 66.2 268.6 66.2 271.9 62.9 268.7 61 268.7 24.7 268.8 24.7 297.2 66.2 307.6 66.2 307.6 66.2"></polygon>
<polygon class="pink n" points="313.7 60.1 310.5 58.2 310.5 4.2 305.9 4.2 303 0.9 299.8 4.2 299.8 44.8 299.7 44.8 271.7 4.2 267 4.2 264 0.9 260.8 4.2 260.8 4.2 260.8 63.3 271.5 63.3 274.7 60.1 271.5 58.2 271.5 21.9 271.6 21.9 300 63.3 310.5 63.3"></polygon>
<polygon class="red n" points="313.7 60.1 303.3 60.1 274.8 18.6 274.7 18.6 274.7 60.1 264 60.1 264 0.9 274.9 0.9 302.9 41.6 303 41.6 303 0.9 313.7 0.9"></polygon>
</svg>