<svg alt="" class="new-header__logo" style="width: 100%;" viewBox="0 0 167 60" xmlns="http://www.w3.org/2000/svg" xmlns:xlink="http://www.w3.org/1999/xlink">
<defs>
<path d="M55.795 35.43v1.364h-3.348v14.147C44.76 59.255 34.221 60 34.221 60c5.87-1.738 6.068-6.662 6.075-6.994V36.794H36.95V35.43h18.846zM18.785 1.736c-3.658 2.73-6.014 7.136-6.014 12.038V46.1c0 4.84 2.356 9.245 6.013 11.976C7.75 53.485 0 42.565 0 29.907c0-12.72 7.75-23.578 18.784-28.17zm69.123 38.656c1.054 0 1.922.248 2.542.807.62.496.93 1.24.93 2.11 0 .62-.124 1.116-.434 1.612-.31.435-.744.807-1.302.993.31.248.682.497.992.93.31.373.744 1.056 1.364 1.986.372.62.682 1.055.868 1.365l.558.745h-1.798l-.434-.682s-.062-.063-.062-.125l-.31-.434-.496-.744-.496-.807c-.31-.434-.62-.745-.868-1.055-.248-.248-.496-.434-.682-.558-.186-.124-.558-.186-1.054-.186h-.372v4.591h-1.55V40.393h2.604zm40.11 0c1.055 0 1.923.248 2.542.807.62.496.93 1.24.93 2.11 0 .62-.124 1.116-.434 1.612-.31.435-.743.807-1.301.993.31.248.682.497.991.93.31.373.744 1.056 1.364 1.986.372.62.682 1.055.868 1.365l.558.745h-1.798l-.434-.682s-.062-.063-.062-.125l-.31-.434-.495-.744-.496-.807c-.31-.434-.62-.745-.868-1.055-.248-.248-.496-.434-.682-.558-.186-.124-.558-.186-1.054-.186h-.372v4.591h-1.55V40.393h2.604zm9.982-.124c.868 0 1.674.248 2.418.744v1.676c-.744-.745-1.55-1.117-2.418-1.117-.496 0-.868.124-1.178.31-.31.248-.496.496-.496.869 0 .31.124.62.372.868.248.249.62.559 1.116.87l1.116.682c1.302.744 1.922 1.737 1.922 2.916 0 .869-.31 1.551-.868 2.047-.558.497-1.302.807-2.17.807-1.054 0-1.984-.31-2.852-.93v-1.924c.806 1.055 1.736 1.551 2.79 1.551.496 0 .868-.124 1.178-.372.31-.248.496-.62.496-.993-.062-.62-.496-1.24-1.426-1.8l-1.116-.682c-.744-.434-1.24-.869-1.55-1.303-.31-.434-.434-.93-.434-1.489 0-.807.31-1.49.868-1.986s1.302-.744 2.232-.744zm-67.946.124c.992 0 1.798.248 2.418.807.62.558.868 1.24.868 2.171 0 .62-.124 1.18-.434 1.613-.31.497-.744.807-1.24 1.055-.558.186-1.302.31-2.294.31h-1.116v4.53h-1.55V40.393h3.348zm31.865-.062v1.365h-3.658v9.183h-1.488v-9.183h-3.595v-1.365h8.741zm-23.248 0l4.712 10.548h-1.55l-1.426-3.102h-4.464l-1.302 3.102h-1.55l4.526-10.548h1.054zm26.658.062l7.067 8.128v-8.128h1.426v10.486h-1.302l-7.005-8.066v8.066h-1.364V40.393h1.178zm57.965 0c.992 0 1.797.248 2.417.807.62.558.868 1.24.868 2.171 0 .62-.124 1.18-.434 1.613-.31.497-.744.807-1.24 1.055-.557.186-1.301.31-2.293.31h-1.116v4.53h-1.55V40.393h3.348zm-6.51 0v10.486h-1.488V40.393h1.488zm-12.15 0v4.53h5.889v-4.53h1.488v10.486h-1.488v-4.592h-5.89v4.592h-1.488V40.393h1.488zm-21.885 0v1.303h-4.463v3.226h4.277v1.303h-4.277v3.289h4.587v1.303h-6.075V40.393h5.951zm-44.574 2.234l-1.55 3.785h3.224l-1.674-3.785zm84.809-.931h-1.55v3.288h1.674c.62 0 1.054-.124 1.426-.434.31-.31.495-.682.495-1.24 0-1.056-.681-1.614-2.045-1.614zm-93.24 0h-1.55v3.288h1.674c.62 0 1.054-.124 1.426-.434.31-.31.496-.682.496-1.24-.062-1.056-.682-1.614-2.046-1.614zm57.655-.062h-.434v3.288h.558c.744 0 1.302-.062 1.55-.186.31-.124.496-.31.682-.62.186-.248.248-.559.248-.869 0-.31-.062-.62-.248-.869-.186-.248-.434-.434-.744-.558-.372-.124-.868-.186-1.612-.186zm-40.173 0h-.434v3.288h.558c.744 0 1.302-.062 1.55-.186.31-.124.496-.31.682-.62.186-.248.248-.559.248-.869 0-.31-.062-.62-.248-.869-.186-.248-.434-.434-.744-.558-.31-.124-.868-.186-1.612-.186zM72.038 24.137c.62 0 1.178.062 1.674.186.557.124 1.177.372 1.983.682v1.551c-1.24-.744-2.48-1.116-3.72-1.116-1.115 0-2.107.372-2.913 1.178-.806.807-1.178 1.738-1.178 2.855 0 1.178.372 2.171 1.178 2.916.806.744 1.798 1.117 3.038 1.117.62 0 1.302-.124 2.17-.435l.123-.062v-2.171h-2.045v-1.303h3.595v4.467c-1.302.558-2.541.869-3.843.869-1.736 0-3.1-.497-4.154-1.551-1.054-.993-1.55-2.234-1.55-3.723 0-1.551.558-2.854 1.612-3.91 1.054-1.054 2.418-1.55 4.03-1.55zm11.407 0l4.711 10.548h-1.55l-1.426-3.103h-4.463l-1.302 3.103h-1.55l4.526-10.548h1.054zm9.857.062c.992 0 1.798.248 2.418.806.62.559.867 1.241.867 2.172 0 .62-.123 1.179-.433 1.613-.31.496-.744.807-1.24 1.055-.558.186-1.302.31-2.294.31h-1.116v4.53h-1.55V24.199h3.348zm-10.353 2.233l-1.55 3.785h3.224l-1.674-3.785zm10.043-.93h-1.55v3.288h1.674c.62 0 1.054-.124 1.426-.434.31-.31.496-.683.496-1.241-.062-1.055-.682-1.613-2.046-1.613zM34.407 0c5.331.745 14.259 4.281 18.04 9.431 1.116 1.303 1.798 3.04 1.798 4.964 0 4.343-3.471 7.818-7.811 7.818s-7.811-3.475-7.811-7.818c0-2.792 1.487-5.274 3.657-6.64l-.165-.356C40.533 4.09 37.76 1.438 34.407 0zm40.234 8.004v1.303h-3.657v9.183h-1.488V9.307H65.9V8.004h8.741zm3.844 0v4.53h5.89v-4.53h1.487V18.49h-1.487V13.9h-5.89v4.591h-1.488V8.004h1.488zm16.18 0V9.37h-4.463v3.165h4.34v1.365h-4.34v3.226h4.588v1.365h-6.076V8.004h5.952z" id="prefix__a"></path>
</defs>
<g fill="none" fill-rule="evenodd">
<mask fill="#fff" id="prefix__b">
<use href="#prefix__a"></use>
</mask>
<use fill="#000" href="#prefix__a"></use>
<g fill="#FFF" mask="url(#prefix__b)">
<path d="M0 0H167V60H0z"></path>
</g>
</g>
</svg>