<svg id="Master_Logo" data-name="Master Logo" xmlns="http://www.w3.org/2000/svg" viewBox="0 0 100 97"><defs><style>.cls-1{fill:#fff}</style></defs><title>Artboard 5 copy</title><path class="cls-1" d="M36.79 63.9h3.33v-9.93h2.82v-2.92h-8.95v2.92h2.8v9.93zm10.75-4.93h3.86v4.93h3.3V51.05h-3.3v5.01h-3.86v-5.01h-3.32V63.9h3.32v-4.93zm16.82 2.18h-4.71v-2.29h4.71v-2.69h-4.71V53.8h4.71v-2.75h-8.03V63.9h8.03v-2.75zm-34.7 14.33l3.69 4.81h4.03l-5.1-6.43 5.1-6.42h-4.03l-3.69 4.83v-4.83h-3.32v12.85h3.32v-4.81zm8.74-8.04h3.36v12.85H38.4zm7.44 12.85h3.32v-9.93h2.83v-2.92h-8.96v2.92h2.81v9.93zm15.46-10.1v-2.75h-8.03v12.85h8.03v-2.75h-4.71v-2.28h4.71v-2.7h-4.71v-2.37h4.71zm34.25 13.63l-2.14 4.61-2.5-4.61h-3.88l4.68 8.24-2.13 4.64h3.67l5.98-12.88h-3.68zm-68.82 5.77h-4.71v-2.9h4.71v-2.86H18.7v12.85h3.32v-4.29h4.71v-2.8zM34 92.48h-2.41l1.23-4.1zm-2.69-8.65l-4.6 12.85h3.55l.48-1.51h4.1l.48 1.51H39l-4.71-12.85zM48.65 92a2.85 2.85 0 0 1-2.91 2 3.72 3.72 0 0 1 0-7.42 2.81 2.81 0 0 1 3 2.37v.18h3.44v-.25c-.38-3.19-3-5.33-6.46-5.33A6.74 6.74 0 1 0 45.7 97a6.2 6.2 0 0 0 6.44-5v-.26H48.7zm13.08-8.17h-8.95v2.93h2.81v9.92h3.32v-9.92h2.82v-2.93zM69 94a3.72 3.72 0 1 1 3.42-3.71A3.51 3.51 0 0 1 69 94m0-10.45a6.74 6.74 0 1 0 6.8 6.74 6.56 6.56 0 0 0-6.8-6.77m11.47 3.1h1.75a1.93 1.93 0 0 1 0 3.84h-1.75zm6.87 1.92a4.63 4.63 0 0 0-4.75-4.71h-5.45v12.85h3.33v-3.44h1l2.21 3.44h3.86L85 92.63a4.58 4.58 0 0 0 2.37-4.09M45.08 0L0 96.68h1L46.09 0"/></svg>