<svg xmlns="http://www.w3.org/2000/svg" width="116" height="178" fill="none" xmlns:v="https://vecta.io/nano"><g clip-path="url(#A)" fill="#000"><path d="M89.363 60.31l.465.263 1.203 13.631 6.382-3.665-1.937-15.782-11.096-6.384-3.725 31.789 7.181-4.127 1.528-15.726zM78.141 81.603l-7.882-4.519.009-10.963 7.246 4.154.005-7.782-7.241-4.159.009-9.961 7.845 4.5.005-8.064-14.9-8.548-.037 44.838 7.914 4.542 7.027-4.039zm-27.342 22.378l-8.973 5.151-.028 31.715-.033.028.033-.018-.014 13.159 7.06-4.052.009-11.757 2.68-1.537c5.142-2.949 8.778-7.515 8.778-15.486v-9.67c-.005-7.279-3.53-10.963-9.512-7.533zm2.485 19.497c0 2.76-.85 4.371-2.754 5.465l-1.667.956.014-16.751 1.287-.739c1.556-.891 3.126-.664 3.126 2.05v9.019h-.005zm45.768-47.215v8.069l5.448-3.125-.033 36.811 7.023-4.034.033-36.811L116 74.601v-8.068l-16.948 9.73z"></path><path d="M110.19 63.2l-11.138-6.388v8.068l4.11 2.354 7.028-4.034zM22.754 164.946l14.942-8.58v-8.069l-7.877 4.524.009-10.972 7.25-4.164.009-7.796-7.25 4.164.009-9.971 7.849-4.509.009-8.073-14.914 8.562-.037 44.884zm40.445-23.226l14.942-8.581v-8.069l-7.877 4.524.009-10.972 7.25-4.163.005-7.797-7.246 4.164.009-9.975 7.849-4.505.005-8.073-14.909 8.562-.037 44.885zM37.641 58.367l-7.873-4.514.014-10.963 7.241 4.154.009-7.782-7.246-4.159.009-9.961 7.845 4.501.009-8.064-14.9-8.548-.042 44.838 14.933 8.567v-8.068zm13.891-28.821l-9.768-5.604-.042 44.838 7.055 4.048.014-11.978 2.225 1.279c5.982 3.434 9.285-.374 9.285-7.658v-9.439c.005-7.971-3.627-12.537-8.769-15.486zm-1.421 24.695l-1.287-.739-.014-17.217 1.667.956c1.904 1.094 2.754 2.705 2.754 5.465v9.481c.005 2.709-1.565 2.94-3.121 2.049v.005zm34.268 30.45l-4.793 47.617 7.283-4.182.581-.332.632-8.821 5.016-2.816.729 7.972 7.353-4.224-5.198-41.874-11.598 6.661h-.005zm4.282 26.126l1.505-21.011.465-.268 1.802 19.114-3.767 2.165h-.005zm-72.613 41.916c1.793-2.22 2.508-4.842 2.508-9.92v-7.32c-.005-7.279-3.53-10.963-9.512-7.533L.07 133.116.042 164.831l-.033.028.033-.019L.028 178l7.06-4.053.009-14.577 2.824-1.62 1.993 13.423 6.948-3.993-2.829-14.438.009-.009h.005zm-8.941-1.436l.014-14.166 1.287-.738c1.556-.891 3.126-.665 3.126 2.049v6.435c-.005 2.76-.855 4.371-2.759 5.465l-1.667.955zM18.579 28.9v-7.81c.005-7.972-3.628-12.537-8.769-15.486L.042 0 0 44.838l7.055 4.048.014-14.305 2.629 1.509 1.946 15.426 7.562 4.311-2.787-21.256c1.282-.96 2.16-2.668 2.16-5.677v.005zM7.102 26.767l-.014-14.189 1.667.956c1.904 1.094 2.754 2.705 2.754 5.465v6.458c.005 2.71-1.565 2.94-3.121 2.049l-1.287-.739z"></path></g><defs><clipPath id="A"><path fill="#fff" d="M0 0h116v178H0z"></path></clipPath></defs></svg>