<?xml version="1.0" standalone="no"?>
<!DOCTYPE svg PUBLIC "-//W3C//DTD SVG 20010904//EN"
 "http://www.w3.org/TR/2001/REC-SVG-20010904/DTD/svg10.dtd">
<svg version="1.0" xmlns="http://www.w3.org/2000/svg"
 width="512.000000pt" height="512.000000pt" viewBox="0 0 512.000000 512.000000"
 preserveAspectRatio="xMidYMid meet">
<metadata>
Created by potrace 1.14, written by Peter Selinger 2001-2017
</metadata>
<g transform="translate(0.000000,512.000000) scale(0.100000,-0.100000)"
fill="#000000" stroke="none">
<path d="M2474 4009 c-16 -5 -40 -19 -53 -32 -31 -33 -1181 -2613 -1181 -2649
0 -36 20 -75 55 -108 26 -24 31 -25 198 -28 189 -4 231 5 280 56 15 16 172
336 365 747 294 625 342 721 365 729 59 21 52 33 402 -724 231 -499 339 -722
361 -745 57 -58 84 -65 266 -65 144 0 167 2 195 20 40 24 65 72 65 120 -1 26
-164 401 -566 1304 -311 696 -575 1284 -586 1305 -13 27 -33 45 -63 60 -47 23
-56 24 -103 10z"/>
</g>
</svg>
